<svg width="31" height="30" viewBox="0 0 31 30" fill="none" xmlns="http://www.w3.org/2000/svg">
<path d="M15.8862 0.0548096C7.61336 0.0548096 0.906738 6.76143 0.906738 15.0343C0.906738 22.0591 5.74332 27.9538 12.2678 29.5728V19.612H9.17902V15.0343H12.2678V13.0618C12.2678 7.96339 14.5752 5.60022 19.5808 5.60022C20.5299 5.60022 22.1674 5.78656 22.8373 5.97231V10.1216C22.4838 10.0845 21.8696 10.0659 21.1069 10.0659C18.6509 10.0659 17.7018 10.9964 17.7018 13.4153V15.0343H22.5947L21.754 19.612H17.7018V29.9042C25.119 29.0084 30.8663 22.693 30.8663 15.0343C30.8657 6.76143 24.1591 0.0548096 15.8862 0.0548096Z" fill="#DD948B"/>
</svg>
