<svg width="31" height="30" viewBox="0 0 31 30" fill="none" xmlns="http://www.w3.org/2000/svg">
<path d="M0.832031 29.959L2.9379 22.2658C1.63843 20.0139 0.955612 17.4611 0.95686 14.8434C0.960605 6.65964 7.62024 0 15.8028 0C19.7736 0.00124829 23.501 1.54788 26.3047 4.35404C29.1071 7.1602 30.65 10.8901 30.6487 14.8572C30.645 23.0422 23.9853 29.7019 15.8028 29.7019C13.3187 29.7006 10.8708 29.0777 8.70251 27.8943L0.832031 29.959ZM9.06701 25.2068C11.1591 26.4488 13.1564 27.1928 15.7978 27.194C22.5985 27.194 28.1384 21.6591 28.1422 14.8547C28.1447 8.0365 22.6309 2.50907 15.8078 2.50657C9.0021 2.50657 3.46593 8.0415 3.46343 14.8447C3.46218 17.6221 4.27607 19.7018 5.64295 21.8776L4.3959 26.4313L9.06701 25.2068ZM23.2813 18.3861C23.1889 18.2313 22.9418 18.1389 22.5698 17.9529C22.199 17.7669 20.3753 16.8694 20.0345 16.7458C19.695 16.6223 19.4478 16.5598 19.1994 16.9318C18.9522 17.3026 18.2407 18.1389 18.0248 18.3861C17.8088 18.6332 17.5916 18.6645 17.2209 18.4785C16.8501 18.2925 15.6542 17.9018 14.2374 16.6372C13.1352 15.6536 12.39 14.439 12.174 14.067C11.9581 13.6963 12.1515 13.4953 12.3363 13.3105C12.5036 13.1445 12.707 12.8774 12.893 12.6602C13.0815 12.4455 13.1427 12.2907 13.2675 12.0423C13.3911 11.7951 13.3299 11.5779 13.2363 11.3919C13.1427 11.2072 12.4012 9.38091 12.0929 8.63818C11.7908 7.91542 11.485 8.01278 11.2578 8.00155L10.5462 7.98907C10.2991 7.98907 9.89712 8.08144 9.55759 8.45343C9.21805 8.82542 8.25937 9.7217 8.25937 11.5479C8.25937 13.3742 9.5888 15.138 9.77354 15.3852C9.95954 15.6324 12.3887 19.3797 16.1099 20.9863C16.9949 21.3683 17.6865 21.5967 18.2245 21.7677C19.1133 22.0498 19.9222 22.0099 20.5613 21.915C21.2741 21.8089 22.7558 21.0175 23.0654 20.1512C23.3749 19.2836 23.3749 18.5409 23.2813 18.3861Z" fill="#DD948B"/>
</svg>
